<?xml version="1.0" encoding="utf-8"?>
<!-- Svg Vector Icons : http://www.onlinewebfonts.com/icon -->
<!DOCTYPE svg PUBLIC "-//W3C//DTD SVG 1.1//EN" "http://www.w3.org/Graphics/SVG/1.1/DTD/svg11.dtd">
<svg version="1.1" xmlns="http://www.w3.org/2000/svg" xmlns:xlink="http://www.w3.org/1999/xlink" x="0px" y="0px" viewBox="0 0 1000 1000" enable-background="new 0 0 1000 1000" xml:space="preserve">
<metadata> Svg Vector Icons : http://www.onlinewebfonts.com/icon </metadata>
<g><g transform="translate(0.000000,512.000000) scale(0.100000,-0.100000)"><path d="M3181.6,4997.8c-654.6-76.6-1244.1-317.7-1751.4-715.8C645.5,3667.5,168.9,2754.5,107.7,1749.7c-13.4-201-11.5-206.7,36.4-262.2l47.9-57.4H5000h4808.1l45.9,53.6c53.6,63.2,57.4,135.9,24.9,430.7c-72.8,664.2-313.9,1263.3-715.9,1774.3c-149.3,189.5-449.8,486.2-637.4,629.7c-411.5,313.9-937.9,547.4-1460.4,647c-212.5,40.2-258.4,40.2-1979.2,45.9C4117.6,5013.1,3260.1,5007.4,3181.6,4997.8z M7072.9,4639.9c652.7-137.8,1202-438.3,1640.4-897.7c99.5-105.3,233.5-260.3,294.8-348.4c223.9-312,423-771.4,499.6-1150.3c38.3-195.2,67-465.1,49.8-484.3c-7.6-7.7-2063.3-11.5-4568.9-9.6L435,1755.4l5.7,114.8c23,459.4,224,1033.6,516.8,1473.8c172.3,260.3,557,645,817.3,817.3c421.1,281.4,955.1,474.7,1435.5,518.7c42.1,3.8,882.4,7.7,1866.2,5.7C6860.5,4683.9,6866.2,4682,7072.9,4639.9z"/><path d="M2446.6,3830.2l-49.8-38.3v-321.6c0-310.1,1.9-321.6,44-361.7c61.3-57.4,166.5-55.5,220.1,1.9c40.2,42.1,42.1,63.2,42.1,361.8v319.6l-49.8,38.3c-28.7,23-74.6,40.2-103.4,40.2S2475.4,3853.2,2446.6,3830.2z"/><path d="M3420.9,3822.6c-45.9-45.9-47.9-51.7-47.9-354.1s1.9-308.2,47.9-354.1c63.2-65.1,158.9-65.1,222,1.9c44,47.9,45.9,57.4,45.9,356v306.3l-53.6,45.9C3564.5,3883.8,3480.2,3883.8,3420.9,3822.6z"/><path d="M4397.1,3822.6c-45.9-45.9-47.9-51.7-47.9-354.1s1.9-308.2,47.9-354.1c76.6-78.5,201-63.2,248.8,30.6c36.4,68.9,40.2,572.3,5.7,635.5C4598,3881.9,4475.5,3903,4397.1,3822.6z"/><path d="M5400,3845.6c-63.2-47.9-74.7-105.3-74.7-377.1c0-346.5,23-402,174.2-402c34.5,0,74.7,19.1,103.4,47.9c45.9,45.9,47.9,51.7,47.9,354.1s-1.9,308.2-47.9,354.1C5551.2,3874.3,5451.7,3885.7,5400,3845.6z"/><path d="M6357.1,3820.7c-44-47.9-45.9-57.4-45.9-352.2c0-294.8,1.9-304.3,45.9-352.2c63.2-67,158.9-67,222-1.9c45.9,45.9,47.9,51.7,47.9,354.1s-1.9,308.2-47.9,354.1C6515.9,3887.6,6420.2,3887.6,6357.1,3820.7z"/><path d="M7346.6,3830.2l-49.8-38.3v-321.6c0-310.1,1.9-321.6,44-361.7c61.3-57.4,166.5-55.5,220.1,1.9c40.2,42.1,42.1,63.2,42.1,361.8v319.6l-49.8,38.3c-28.7,23-74.7,40.2-103.4,40.2S7375.3,3853.2,7346.6,3830.2z"/><path d="M712.5,1246.2C402.4,1185,140.2,899.8,107.7,584C75.1,272,310.5-68.7,634-168.2c118.7-38.3,185.7-38.3,4366-38.3c4180.3,0,4247.3,0,4366,38.3C9689.5-68.7,9924.9,272,9892.3,584c-32.5,323.5-294.8,602.9-622.1,664.2C9142,1273,836.9,1271.1,712.5,1246.2z M9387,880.7c248.8-147.4,250.7-553.2,1.9-706.3l-72.7-45.9H5000H683.8l-72.7,45.9c-111,68.9-168.4,170.4-179.9,315.8c-9.6,109.1-3.8,139.7,40.2,229.7C523,825.1,597.7,890.2,708.7,922.8c28.7,9.6,1971.5,15.3,4320,13.4l4268.4-3.8L9387,880.7z"/><path d="M100-539.6v-164.6h53.6c38.3,0,90-30.6,178-107.2c172.3-151.2,294.8-204.8,467-204.8s294.8,53.6,467,204.8c118.7,103.4,128.2,107.2,229.7,107.2c103.4,0,112.9-3.8,252.7-120.6c181.8-151.2,271.8-191.4,447.9-191.4c166.5,0,298.6,53.6,440.2,181.8c126.3,112.9,160.8,130.1,275.6,130.1c88,0,103.4-7.7,216.3-105.3c176.1-155,292.8-206.7,463.2-206.7c168.4,0,310.1,57.4,446,183.7c120.6,111,156.9,128.3,269.9,128.3c88.1,0,105.3-7.7,235.4-118.7c176.1-145.4,275.6-191.4,426.8-193.3c158.9-3.8,275.6,32.5,386.6,122.5c243.1,193.3,237.4,189.5,344.5,189.5c97.6,0,109.1-5.7,250.8-124.4c164.6-137.8,283.3-189.5,436.4-189.5c185.7,0,273.7,40.2,507.2,233.5c88,72.7,109.1,80.4,199.1,80.4c107.2,0,101.4,1.9,344.5-189.5c111-90,227.8-126.3,386.6-122.5c151.2,1.9,250.8,47.9,424.9,193.3c132.1,111,147.4,118.7,237.3,118.7c112.9,0,149.3-17.2,269.9-128.3c135.9-126.3,277.5-183.7,446-183.7c168.5,0,283.3,49.7,467,206.7c84.2,72.7,139.7,105.3,176.1,105.3h53.6v164.6v166.5l-93.8-11.5c-124.4-15.3-223.9-67-367.5-195.2c-185.7-164.6-290.9-164.6-482.4,1.9c-179.9,158.9-256.5,189.5-463.2,189.5c-201,0-260.3-24.9-442.1-179.9c-206.7-178-294.8-176.1-514.9,7.7c-181.8,151.2-283.3,189.5-474.7,178c-164.6-7.7-252.7-47.9-426.8-197.1c-193.3-162.7-285.2-162.7-480.4,3.8c-183.8,156.9-298.6,202.9-480.4,193.3c-179.9-7.7-271.8-49.7-440.2-195.2c-187.6-166.5-289-164.6-490,9.6c-181.8,155.1-241.2,179.9-442.1,179.9c-204.8,0-287.1-32.5-453.6-181.8c-195.2-174.2-300.5-176.1-491.9-7.7c-191.4,166.5-246.9,189.5-461.3,189.5c-212.5,0-264.1-21.1-457.5-189.5c-191.4-166.5-292.9-166.5-480.4,0c-183.7,164.6-245,189.5-459.4,189.5c-212.5,0-264.1-21.1-457.5-189.5c-193.3-168.4-289-166.5-482.3,0c-149.3,130.2-241.2,178-363.7,193.3L100-373.1V-539.6z"/><path d="M712.5-1203.8C402.4-1265,140.2-1552.1,107.7-1866c-32.5-312,202.9-652.7,526.4-752.2c118.7-38.3,185.7-38.3,4364.1-38.3c3820.5,0,4255,3.8,4348.7,30.6c214.4,63.2,380.9,208.6,484.3,426.8c51.7,109.1,59.3,147.4,59.3,279.5c0,132.1-9.6,172.3-61.3,283.3c-107.2,224-317.7,388.6-558.9,434.5C9142-1177,836.9-1178.9,712.5-1203.8z M9387-1569.3c248.8-147.4,250.7-553.2,1.9-706.3l-72.7-45.9H5000H683.8l-72.7,45.9c-111,68.9-168.4,170.4-179.9,315.8c-9.6,109.1-3.8,139.7,40.2,229.7c51.7,105.3,126.3,170.4,237.3,202.9c28.7,9.6,1971.5,15.3,4320,13.4l4268.4-3.8L9387-1569.3z"/><path d="M155.5-2865.2c-42.1-34.4-45.9-49.8-44-206.7c5.7-407.7,189.5-819.2,513-1150.4c245-252.7,514.9-411.5,853.7-505.3l162.7-44H5000h3359.2l162.7,44c338.8,93.8,608.7,252.7,853.7,505.3c323.5,331.1,505.3,740.8,513,1150.4c1.9,157-1.9,172.3-44,206.7c-44,36.4-139.7,36.4-4844.5,36.4C295.2-2828.8,199.5-2828.8,155.5-2865.2z M9555.5-3207.8c0-93.8-76.6-335-158.9-491.9c-59.3-116.7-120.6-195.2-252.7-325.4c-195.2-197.1-371.3-302.4-633.5-377.1l-151.2-44H5000H1640.8l-151.2,44c-262.2,74.6-438.3,179.9-633.6,377.1c-231.6,229.7-348.4,453.6-409.6,780.9l-15.3,90h4561.2h4563.1V-3207.8z"/></g></g>
</svg>