<?xml version="1.0" encoding="utf-8"?>
<!-- Svg Vector Icons : http://www.onlinewebfonts.com/icon -->
<!DOCTYPE svg PUBLIC "-//W3C//DTD SVG 1.1//EN" "http://www.w3.org/Graphics/SVG/1.1/DTD/svg11.dtd">
<svg version="1.1" xmlns="http://www.w3.org/2000/svg" xmlns:xlink="http://www.w3.org/1999/xlink" x="0px" y="0px" viewBox="0 0 1000 1000" enable-background="new 0 0 1000 1000" xml:space="preserve">
<metadata> Svg Vector Icons : http://www.onlinewebfonts.com/icon </metadata>
<g><g transform="translate(0.000000,512.000000) scale(0.100000,-0.100000)"><path d="M5143.7,5003.9c-157.1-7.7-323.8-15.3-369.8-17.2c-59.4-1.9-95.8-15.3-130.3-49.8c-44.1-46-47.9-59.4-44.1-216.5l3.8-166.7l-65.1,1.9c-36.4,0-199.2,7.7-362.1,13.4c-316.1,15.3-333.4,11.5-379.3-76.6c-13.4-23-23-95.8-23-162.8s-5.7-178.2-13.4-249.1l-11.5-130.3h-243.3c-172.4,0-249.1,7.7-262.5,24.9c-9.6,11.5-28.7,95.8-42.1,185.8c-24.9,174.3-55.6,241.4-122.6,266.3c-65.2,24.9-1019.2-136-1067.1-180.1c-51.7-46-49.8-122.6,9.6-475.1c34.5-203.1,44.1-291.2,28.7-300.8c-11.5-7.7-116.9-23-235.6-36.4c-229.9-24.9-293.1-49.8-312.3-128.4c-7.7-26.8,30.7-417.6,84.3-867.9c80.5-680.1,93.9-831.5,74.7-881.3c-17.3-47.9,28.7-592,272-3147.8c160.9-1699.4,302.7-3105.6,310.4-3122.9c38.3-72.8,78.6-74.7,519.2-34.5c706.9,63.2,1002,78.6,1883.3,90c1063.3,13.4,2051.9-24.9,2812.5-111.1c212.7-24.9,264.4-11.5,298.9,76.6c9.6,26.8,149.4,1436.9,310.4,3132.4c268.2,2820.1,289.3,3086.4,264.4,3132.4c-26.8,46-21.1,141.8,74.7,1069.1c57.5,561.3,99.6,1042.2,92,1067.1c-5.7,26.8-30.6,59.4-55.5,72.8c-23,13.4-210.7,42.1-415.7,63.2l-373.6,38.3l-9.6,304.6c-9.6,289.3-11.5,304.6-55.6,339.1c-42.1,34.5-80.5,36.4-557.5,36.4c-584.3,0-588.2,0-607.3-149.4l-11.5-80.5h-281.6h-281.6l-11.5,205c-7.7,111.1-13.4,245.2-13.4,297c0,74.7-9.6,103.5-47.9,139.8C5724.2,5028.8,5712.8,5028.8,5143.7,5003.9z M5519.2,4712.7c5.8-26.8,69-1674.5,63.2-1680.2c-11.5-11.5-588.2-78.5-597.7-70.9c-9.6,11.5-76.6,1705.1-67.1,1716.6c5.7,5.7,122.6,15.3,260.6,21.1c139.9,5.7,272.1,11.5,297,13.4C5498.2,4714.6,5517.3,4714.6,5519.2,4712.7z M4498.1,4245.2c65.1-5.7,118.8-11.5,118.8-13.4c1.9-1.9,9.6-172.4,19.2-375.5c11.5-289.3,7.7-515.4-19.2-1002c-19.2-346.8-36.4-634.1-42.2-638c-3.8-3.8-70.9,1.9-149.4,11.5c-78.5,11.5-178.2,17.2-218.4,11.5l-74.7-11.5l11.5,281.6c7.7,155.2,19.2,519.2,24.9,808.5l13.4,528.8l-63.2,51.7l-61.3,53.7l13.4,159l13.4,159l145.6-7.7C4310.3,4258.6,4431,4251,4498.1,4245.2z M7337.4,2944.4c0-789.3-7.7-1312.4-17.3-1312.4s-44.1-21.1-74.7-47.9c-46-38.3-69-92-130.3-295c-40.2-137.9-74.7-247.1-78.6-243.3c-3.8,3.8,19.2,258.6,51.7,565.2c74.7,716.5,74.7,726.1,13.4,779.8c-38.3,32.6-84.3,44.1-212.7,55.6l-164.8,13.4v898.5v898.5h306.5h306.5V2944.4z M2927.1,3950.2c19.2-109.2,23-277.8,13.4-689.7c-5.7-300.8-15.3-603.5-23-674.4c-9.6-120.7-13.4-130.3-55.6-130.3c-24.9,0-46,11.5-46,24.9c-1.9,109.2-115,936.9-132.2,969.4c-32.6,57.5-97.7,78.5-208.8,65.1c-93.9-9.6-95.8-9.6-107.3,44.1c-30.7,149.4-69,434.9-59.4,444.5c15.3,15.3,492.4,95.8,546,93.9C2896.4,4093.9,2904.1,4082.4,2927.1,3950.2z M6417.8,3260.5c0-716.5-1.9-766.3-32.6-766.3c-19.2,0-97.7,9.6-174.3,19.2c-113,15.3-151.4,13.4-195.4-9.6l-53.6-26.8l-21.1,176.3c-11.5,97.7-26.8,446.4-32.6,775.9l-13.4,597.8h262.5h260.5V3260.5z M3854.4,3135.9c-3.8-274-9.6-511.5-15.3-526.9c-5.7-21.1-26.8-28.7-78.5-23c-40.2,3.8-176.3-11.5-300.8-32.6c-126.4-21.1-231.8-36.4-231.8-34.5c-1.9,1.9,3.8,185.8,11.5,406.2c7.7,222.2,15.3,473.2,15.3,561.3l1.9,159l302.7-5.8l300.8-5.7L3854.4,3135.9z M7946.6,3544c216.5-19.2,233.7-24.9,233.7-61.3c0-55.6-172.4-1754.9-183.9-1806.7c-7.7-42.1-17.3-44.1-180.1-44.1h-172.4v967.5c0,908.1,1.9,967.5,34.5,967.5C7695.7,3567,7816.4,3557.4,7946.6,3544z M2501.8,2521c44.1-367.8,86.2-718.4,92-777.8l13.4-111.1h-304.6H1996l-11.5,63.2c-24.9,149.4-168.6,1415.8-159,1423.5c11.5,11.5,549.9,80.5,578.6,74.7C2415.6,3191.5,2459.6,2888.8,2501.8,2521z M5622.7,2701c3.8-13.4,76.6-618.8,162.9-1346.9c84.3-726.1,159-1341.1,162.8-1364.1c9.6-38.3-3.8-46-115-80.4c-120.7-38.3-467.5-105.4-479-93.9c-3.8,3.8-38.3,289.3-78.6,634.2l-72.8,628.4l49.8,463.6c59.4,536.4,59.4,544.1-84.3,586.3c-72.8,21.1-92,38.3-99.6,76.6c-21.1,107.3-51.7,427.2-42.2,436.8c5.8,5.7,132.2,24.9,283.6,44.1c151.3,19.2,281.6,34.5,289.3,36.4C5607.4,2722.1,5618.9,2712.5,5622.7,2701z M3756.7,1373.4l147.5-881.3l-28.7-220.3c-13.4-120.7-30.6-222.2-34.5-228c-17.2-17.3-318,180.1-433,283.5l-118.8,107.3l-139.9,860.2c-78.5,473.2-137.9,864.1-134.1,867.9c11.5,11.5,532.6,97.7,567.1,93.9C3603.4,2254.7,3641.7,2057.3,3756.7,1373.4z M6580.6,2166.5c126.4-11.5,235.6-26.8,241.4-34.5c7.7-5.8-28.7-402.3-78.5-879.4l-90-866l-55.6-59.4c-59.4-63.2-333.3-252.9-346.8-241.4c-3.8,5.8-36.4,249.1-70.9,542.2l-63.2,534.5l53.6,507.7c28.7,279.7,53.7,515.4,53.7,524.9c1.9,7.7,30.6,11.5,65.1,5.8C6322,2195.3,6454.2,2179.9,6580.6,2166.5z M4722.2,1883l249.1-30.7l-5.7-86.2c-13.4-183.9-216.5-1942.7-224.2-1952.3c-15.3-13.4-337.2,34.5-475.1,72.8c-107.3,28.7-118.8,36.4-115,78.5c3.8,26.8,53.6,473.2,111.1,992.4c57.5,519.2,105.4,948.4,105.4,954.1C4367.8,1925.1,4459.8,1917.5,4722.2,1883z"/></g></g>
</svg>