<svg id="Layer_1" data-name="Layer 1" xmlns="http://www.w3.org/2000/svg" viewBox="0 0 24.4 24.33"><title>glutenfree</title><path class="cls-1" d="M2850.85,1652.49a12.2,12.2,0,1,1-12-12.18A12.16,12.16,0,0,1,2850.85,1652.49Zm-13.95-2.91-1.56,1.56-4.61-4.71a9.95,9.95,0,0,0,13.78,14.08l-4.92-5,1.6-1.52,5,5.08a10,10,0,0,0-13.88-14.19l4.63,4.73" transform="translate(-2826.45 -1640.3)"/><path class="cls-1" d="M2839.9,1647.42a7.87,7.87,0,0,1,.34,1,2.93,2.93,0,0,1-.34,2,1.47,1.47,0,0,1-.34.41,0.44,0.44,0,0,1-.75-0.18A3,3,0,0,1,2839.9,1647.42Z" transform="translate(-2826.45 -1640.3)"/><path class="cls-1" d="M2843.18,1650.47a2.25,2.25,0,0,1-1.08,1,3.2,3.2,0,0,1-1.91.34,0.58,0.58,0,0,1-.53-0.35,0.56,0.56,0,0,1,.19-0.58A3,3,0,0,1,2843.18,1650.47Z" transform="translate(-2826.45 -1640.3)"/><path class="cls-1" d="M2841.54,1652.21a2.1,2.1,0,0,1-.85.91,3.14,3.14,0,0,1-2.24.48,0.49,0.49,0,0,1-.28-0.91,2.78,2.78,0,0,1,2.28-.74A7.17,7.17,0,0,1,2841.54,1652.21Z" transform="translate(-2826.45 -1640.3)"/><path class="cls-1" d="M2839.83,1654.08a2,2,0,0,1-.8.84,3.31,3.31,0,0,1-2.09.51,0.61,0.61,0,0,1-.63-0.37,0.64,0.64,0,0,1,.29-0.68A3,3,0,0,1,2839.83,1654.08Z" transform="translate(-2826.45 -1640.3)"/><path class="cls-1" d="M2838.17,1649.25a2.78,2.78,0,0,1,.4,2.05,2.42,2.42,0,0,1-.52,1.25,0.6,0.6,0,0,1-.58.28,0.58,0.58,0,0,1-.41-0.49A3,3,0,0,1,2838.17,1649.25Z" transform="translate(-2826.45 -1640.3)"/><path class="cls-1" d="M2836.49,1651.06a3,3,0,0,1-.12,3.31,0.59,0.59,0,0,1-.58.26,0.56,0.56,0,0,1-.39-0.47A3,3,0,0,1,2836.49,1651.06Z" transform="translate(-2826.45 -1640.3)"/><path class="cls-1" d="M2841.51,1645.61a2.64,2.64,0,0,1,.41,2,5.55,5.55,0,0,1-.38,1.11,1,1,0,0,1-.27.33,0.46,0.46,0,0,1-.8-0.19,2.35,2.35,0,0,1-.08-1.33A2.79,2.79,0,0,1,2841.51,1645.61Z" transform="translate(-2826.45 -1640.3)"/><path class="cls-1" d="M2838.17,1655.9a2.52,2.52,0,0,1-.22.32,3.09,3.09,0,0,1-2.8,1,0.77,0.77,0,0,1-.48-0.33,0.49,0.49,0,0,1,.16-0.58A3,3,0,0,1,2838.17,1655.9Z" transform="translate(-2826.45 -1640.3)"/><path class="cls-1" d="M2844.87,1648.7a4.51,4.51,0,0,1-.5.55,3.1,3.1,0,0,1-2.57.72,0.49,0.49,0,0,1-.27-0.92,2.78,2.78,0,0,1,2.25-.72,7.31,7.31,0,0,1,1.06.24Z" transform="translate(-2826.45 -1640.3)"/><path class="cls-1" d="M2845,1645.31a5.21,5.21,0,0,1-.13.81,3.22,3.22,0,0,1-1.53,1.84,0.6,0.6,0,1,1-.9-0.8A3.05,3.05,0,0,1,2845,1645.31Z" transform="translate(-2826.45 -1640.3)"/><path class="cls-1" d="M2834.82,1652.86a2.47,2.47,0,0,1,.43,1.33,3.13,3.13,0,0,1-.34,1.67,1.6,1.6,0,0,1-.18.27,0.63,0.63,0,0,1-.61.32,0.57,0.57,0,0,1-.42-0.54,3.11,3.11,0,0,1,.86-2.87l0.13-.1Z" transform="translate(-2826.45 -1640.3)"/><path class="cls-1" d="M2832.2,1659.48a0.82,0.82,0,0,1-.29-0.27,0.54,0.54,0,0,1,.09-0.42c0.41-.5.85-1,1.28-1.47l0.32-.36a0.36,0.36,0,0,1,.53,0,0.35,0.35,0,0,1,0,.51q-0.81.94-1.64,1.87A1.34,1.34,0,0,1,2832.2,1659.48Z" transform="translate(-2826.45 -1640.3)"/></svg>